# xmcd
#
# Track frame offsets:
#      150
#      26057
#      58612
#      93065
#      122242
#      165325
#      191082
#      212375
#      239990
#      262187
#      279830
# 
# Disc length: 4097 seconds
#
# Revision: 2
# Processed by: cddbd v1.4PL0 Copyright (c) Steve Scherf et al.
#
# Submitted via: FreeRIP 1.20
#
DISCID=9a0fff0b
DTITLE=Neville Street Groove - Watching Pigeons in the Sun
DYEAR=1995
DGENRE=Other
TTITLE0=Mangled Mind
TTITLE1=My Stereo
TTITLE2=Any Other Way
TTITLE3=Jeremiah
TTITLE4=Watching Pigeons in the Sun
TTITLE5=Satisfying my soul
TTITLE6=Better off Dead
TTITLE7=Don't Let it Slip
TTITLE8=Sensamile
TTITLE9=Watch Out Willie
TTITLE10=The One Thing
EXTD=
EXTT0=
EXTT1=
EXTT2=
EXTT3=
EXTT4=
EXTT5=
EXTT6=
EXTT7=
EXTT8=
EXTT9=
EXTT10=
PLAYORDER=
